<svg width="21" height="21" viewBox="0 0 21 21" fill="none" xmlns="http://www.w3.org/2000/svg">
<path fill-rule="evenodd" clip-rule="evenodd" d="M6.6045 18.8994C14.5288 18.8994 18.8632 12.4351 18.8632 6.83003C18.8632 6.64602 18.8632 6.46339 18.8506 6.28145C19.6938 5.68186 20.4214 4.9374 21 4.08558C20.2146 4.42879 19.3798 4.65387 18.5262 4.75311C19.425 4.22278 20.098 3.38961 20.4204 2.4065C19.5741 2.90064 18.649 3.24938 17.6841 3.4365C16.0524 1.72871 13.3235 1.64597 11.5878 3.25245C10.4696 4.28828 9.9939 5.8327 10.3414 7.30582C6.8775 7.13421 3.6498 5.52363 1.4616 2.87408C0.31815 4.81239 0.903 7.29111 2.79615 8.53577C2.1105 8.51613 1.43955 8.33438 0.84 8.00564V8.05948C0.84105 10.0784 2.2869 11.8169 4.2966 12.2169C3.6624 12.3875 2.9967 12.4122 2.352 12.2892C2.91585 14.0177 4.5339 15.2016 6.37665 15.2357C4.851 16.4162 2.96625 17.0573 1.02585 17.0552C0.68355 17.0542 0.34125 17.0345 0 16.9942C1.97085 18.2389 4.263 18.8994 6.6045 18.8963" fill="#224479"/>
</svg>
