<svg width="18" height="18" fill="none" xmlns="http://www.w3.org/2000/svg"><g clip-path="url(#clip0_984_1228)"><path fill-rule="evenodd" clip-rule="evenodd" d="M4.096 17.586V5.999H.246v11.587h3.85zM2.17 4.418c1.342 0 2.179-.89 2.179-2.002C4.324 1.279 3.513.414 2.196.414S.018 1.28.018 2.416c0 1.112.835 2.002 2.128 2.002h.025zm4.056 13.168s.05-10.5 0-11.586h3.851v1.68h-.025c.506-.79 1.418-1.953 3.496-1.953 2.534 0 4.433 1.656 4.433 5.215v6.644h-3.85v-6.198c0-1.558-.557-2.62-1.951-2.62-1.064 0-1.698.716-1.976 1.408-.102.247-.127.593-.127.94v6.47h-3.85z" fill="#224479"/></g><defs><clipPath id="clip0_984_1228"><path fill="#fff" d="M0 0h18v18H0z"/></clipPath></defs></svg>