<svg width="60" height="60" fill="none" xmlns="http://www.w3.org/2000/svg"><path d="M14.025 16.611l-.165.863-1.978 10.334-1.12 5.847h.01l1.117-5.848 1.978-10.333.166-.863h-.008zm12.052 0l-.165.863-1.978 10.334-1.117 5.847h.011l1.117-5.848 1.978-10.333.166-.863h-.012z" fill="#fff"/><path d="M53.017 0l-1.979 10.333h-23.75l-6.964 36.418-9.946 2.624c-.986-.818-1.275-1.06-2.264-1.878l2.647-13.842h.012l1.116-5.848 1.978-10.333.166-.863h-.008L17.203 0h35.814z" fill="#fff"/><path d="M13.86 17.474l-1.978 10.334h.007l1.978-10.334h-.007zm12.052 0l-1.978 10.334h.011l1.978-10.334h-.011zm-21.739 0L2.195 27.808H9.75l1.978-10.334H4.173zm53.386 13.28c1.564-8.177-4.482-13.28-13.992-13.28H28.05l-1.978 10.334H41.59c2.696 0 4.223 1.31 3.794 3.535-.436 2.292-2.463 3.598-5.16 3.598H34.26l-1.974 10.34L40.54 60h13.274l.462-2.423-8.585-14.133.075-.388c6.04-1.896 10.654-6.35 11.793-12.302z" fill="#fff"/><path d="M14.033 16.611l-.166.863-1.978 10.334-1.116 5.847h-.012l1.12-5.848 1.979-10.333.165-.863h.008z" fill="#fff"/></svg>