<svg width="540" height="557" fill="none" xmlns="http://www.w3.org/2000/svg"><g clip-path="url(#clip0_984_1247)"><path d="M323.896 445.514l.899 1.097-.614-.768-.285-.329zm35.478-43.853l-.79-1.997 1.075 2.699-.285-.702zm-30.717 63.007l.198-.197.768-.746-.966.943zm8.994 12.153l.022-.131.307-1.053-.329 1.184zm62.092-76.717l-2.633.439 7.109-1.207-4.476.768zM222.669 413.2l.154-1.536-.176 1.821.022-.285zm-36.724-29.073l1.624-.395-.044.022-1.58.373zm16.827 25.17l-3.686 1.097 3.62-1.075.066-.022zm125.845-22.995l-.614-2.808.658 2.918-.044-.11zm-107.198 24.44l-1.141-.746 2.545 1.667-1.404-.921zm76.324 16.868l-.066-.504-.439-3.598.505 4.102zm-32.597.335l2.588-3.62.022-.022-2.61 3.642zm-69.307 5.221l2.632.943-2.457-.877-.175-.066zm226.564 4.561l-1.821-3.05-.154-.263 1.975 3.313zm-190.517-17.046l2.281-2.699-.044.066-2.237 2.633zm126.607-105.968l1.975 3.071-.527-.833-1.448-2.238zm-2.146 71.873l2.15.154-2.457-.154h.307zm39.771-125.027l-2.259-.329-3.379-.46 5.638.789zm-43.084 133.844l.483-.307-3.028 1.886 2.545-1.579zm-32.647 38.745l1.47.79-.242-.153-1.228-.637zm83.173-153.789l-.9.22-1.887.417 2.787-.637zm-189.094 23.166l1.229.549 2.018-.351-.132-.11.615-1.338-1.558-1.492h-.856l.066-1.492 1.295-1.075.175-1.646-1.097-.504.066-1.492 4.388-2.15-.944-.746 1.624-1.733.943.57 2.326-.833-.088-2.962-1.031-1.997 1.36-1.316 1.997-.263 1.36 1.492.768-.571.877.329.768-1.075.68-1.821-1.974-2.084-1.119.834-2.655-.066-1.294-1.338-1.207-1.734-1.119-.241.966-1.163v-2.237l-2.15-1.405-3.357.242-1.624.746-1.799-.242-.877.746 1.909 2.479-.527.834 1.799 2.15-.175.658-1.712-.658-1.886.395-.351-.987 1.206-1.229-1.206-2.084h-.593l-1.799 2.413 1.031 1.404-2.15 1.492-1.294-1.404h-1.887l-1.272-.68-1.558 1.58 2.413 1.733v2.084l-1.47-1.075-.943.241.439 2.743 1.535.812v2.479l1.295 1.25-3.094 1.404-1.294 3.16 1.294.987 1.887-.987 2.567 2.237.527 3.313-.944.571.461 1.689 2.984-.154 4.168 1.119zm20.95-63.028l1.229-2.216-.505-6.779-1.711-2.918.899-1.887 1.558-.79-1.141-2.216.724-1.272 3.532-.307.966-1.668-.154-2.281 1.624-3.379-1.624-2.216-.812-4.98-2.15-4.015.176-1.821 5.155-1.645.066-3.554 1.075-2.436-3.927-4.19-3.269-1.58-.153-4.102.724-4.015-.571-4.432-1.228-2.983.987-3.401-.658-5.748-1.075-5.616.833-4.893 2.523-4.322 2.458-1.426 3.027.614 3.839.242 1.975-2.589-.329-4.103-1.053-1.667.153-2.677 3.84-9.082.175-5.2 1.141-4.958 1.141-2.765-.088-3.159-1.623-1.58.088-2.215 3.598-2.041 3.839-.79 1.799-1.491.153-2.216 3.116-5.287 3.181-4.257 1.075-2.523-1.229-3.247-1.316-1.404-.066-5.046 1.47-.724 1.382-1.82.658-2.677 1.558-.79 1.711-3.62 2.37-1.733 2.523 1.097 1.075 1.184 1.47-.241 1.711-1.492-1.382-2.281 1.316-1.185V64.5l.571-1.185-1.799-2.764 1.141-.702 3.268.066 2.458-1.25 3.751.943 2.304 1.491 2.611.242 1.469 1.184 1.163-.394 1.053.636v-2.699l-1.228-1.733.329-3.378 1.799-.944-.571-2.303-1.799-.944-.175-2.194 2.611.79 2.545-.483.855-.395-.022-.021.461-.659.965.461.768-.505-.658-1.645.417-1.887 1.558-1.272 2.128.329 1.711 2.435 4.826 3.796.9 2.281 1.799 2.37 3.181 1.25 5.309.176 2.787-2.611 1.557-1.58 2.37.088 3.773 2.523 2.523.395 1.317-2.37 1.47-.79 1.799-1.666 1.952.175 1.975-1.273.812-1.426-.812-1.886-1.053-3.313.57-5.595.724-1.733-1.053-1.667 1.294-.79 1.799-2.37-.153-1.25 2.369-1.031 2.94.548 1.733-.395-.175-.943 1.886-1.974 4.827-.066 2.128 1.404 2.743 3.378 1.601 1.58 2.457.878 3.774.373.658 1.799 2.26 2.281-.395 2.26-1.997 3.05.417 4.453 1.339-.22.087-3.838 3.05-2.809 2.698-.35 1.756-2.304-.242-3.116 1.887-.153 2.326.9 1.404-1.712-.11-2.238-.658-.088-1.668-1.228h-.855l-.768.46-.088 1.273-.899-.856-.549-1.25-1.25-.044.263 1.207-.307 2.303-.812-.482-.965-1.536L383.79 31l-.548 1.207-.549-1.733-.57-2.37-.856-.132-.899-2.391-.9-.483-1.886.242-1.624-.659-2.655-.285-1.316-1.689.461-.417 3.335.856 2.742-.33 2.347.418 4.454.592 3.093-1.031 2.019-3.883 4.278-1.075 1.821-1.492v-.615l-1.36-.46-.417-.878-1.58-.483-1.974.33L388.419 12h-1.491l-1.799 1.952h-1.163l-.329-.746 1.777-1.119.307-1.491-2.172-.812-.439-.592-1.579.087-1.448 2.436h-.834l.175-1.734-.987.176-.877 1.272-.988-.088-.395-1.118 1.448-.988V7.964l-2.128-1.273-2.15-.065-1.316.79-.351 3.027-1.492.614-.175 1.031 1.272 3.094-.154 1.36-1.162 1.031-.944-1.886-1.382-.132-.329.702-1.843-.33-2.742 1.207 2.15-2.896 1.667-.416 1.075-2.063-.307-1.03-.812.13-2.216 1.602-1.294-.373.307-.943 1.448-1.163.132-.9-1.975-.46-.373-.834 1.624-.482.68.614h2.391l1.361-3.379-.374-1.404-2.215.527-1.031-.658.416-1.558L364.791 0l-1.448 1.229-1.207-.132-1.294-1.053-1.623 1.47.087 1.031 1.339 1.623-.9 1.185h-.987l-1.602-2.194-1.141 1.053-.592 1.843.505.79 1.711.044.812.746-.176.9-1.36.592v1.513l-1.338.659v1.448l.395.658-1.229.79.702 2.15-.636.702-1.448-.988-1.317.988-.307.833-1.448.988-.131-2.063 1.843-3.86-1.799-.593.175-1.01 1.272-1.228.044-3.313-.68-1.075-1.075.044-2.83 4.498-.088 2.522-2.874 3.796-.68 2.677.614 1.162-.307 2.194-2.918 3.094-1.491.658v-1.887l-.68-1.382 1.886-2.874-.395-1.909.768-1.448-.899-1.887 3.313-3.51.548-2.106.527-.373-.22-1.207-1.777-.153-1.799-1.777-.899.285.307 1.93-1.273 1.427-.087-1.909-1.514-1.404-1.821-.373-1.382.702.307 2.633-.68 1.294-.944-1.119-1.25-.702-.944.9.308.833 2.566 1.646.615 1.865-.615.658-1.119-1.12-1.36 1.207-.131 1.141.636.834-.68.702-2.019-1.272-1.075.087-1.141 2.26-1.491.614v.834l.899.614-2.106 1.317-.461 1.623 1.69 1.733-1.273 1.229 1.711.79.768.79-.943.943-2.787-.241-.723-2.852-1.317-.373 1.229-1.317-1.755-.921-1.931.22-2.479-.176-3.467-2.633-1.009-.044-1.163 1.36-.767-1.448-1.777 1.536-2.041.439-.088.921 2.436 2.808 1.777-.043.965 1.097 2.567.175-1.119 2.04.088 1.887 1.755 2.282-.241 1.47-1.514-1.075-1.492-2.435-1.974-.79-1.141-1.338-.615 1.842-1.667 1.36-.373-2.588-1.689 1.36-.022 1.097-1.975 1.667.132 1.733 2.347 1.032.988 2.018-1.799-.285-.988-.944-1.535 2.194-.505 1.69-2.501 1.886-.022-1.14 1.667-1.163-.57-1.536 1.58-3.05-1.229-6.164-1.623 1.009-2.567 3.949-.066 2.654.395 1.076-1.755 2.128-.22-2.04 1.075-2.282-.812-2.962-1.162-.263-2.172 1.36-1.492 2.72.987 2.128-.131 1.887 3.071 2.15.856 1.492-1.229 2.304-.987-2.94-2.282-.987-1.492-3.84-.68-.417-2.918.966-.395 1.36 2.918 2.194 1.382.153.724.834-1.93-.285-1.931.614 1.294 2.062-2.193-1.491-.264-2.502-.855-.526-.461-1.69-1.294.966-.505 2.72 1.031 1.229-.373 2.457-1.799-.921-1.602.504-2.128 2.458.505.263 1.448-.198 1.426 1.646-1.843.153-1.338.878 1.25.812-.855 1.009-1.624.066-.044 1.119.615.504-1.339.285-.943-1.119-1.623.417-1.427 1.821.571 1.031-.68.659-2.238.175-1.119 2.019 1.843.57 4.914-1.36 1.163.746 2.062-1.01 1.229-.065.066 1.404-1.426 1.557-.439 2.94-.505.615-.899-1.032-.241-1.491-1.843.504-.812-.943-2.282-.044.724.79-.68 1.228-1.667-.943-1.251.132 1.689 1.184.681 1.69-1.031.043-.681 1.23.33 1.579-.417 1.119-.944-1.536.044-1.93-1.557-1.953-1.536 1.623-1.602.373-.768-1.229.615-.921-1.295-.175-1.799 1.93 1.536 1.558 2.391-.088 1.997 1.163-1.119 1.667-4.125.57-.855-.745-1.646.087-.855 1.975 1.382 1.25-1.382 1.822 1.645-.33 2.062-2.325 1.799.088 1.031 1.404-3.005.329-.439 2.172 1.119 1.557 2.391 1.427-.066 1.645-1.645-1.25-1.36.175-1.712-2.15-1.053.153-1.36 1.427 1.536 1.14-2.04.176-1.997 1.404v1.316l2.15.922 1.799-1.163 1.207 1.163 1.887-.57.614 1.71 1.36.768v1.229l-2.896-1.82h-2.325l-1.119.657-3.181.505v1.645l-1.799.922-.768-.658-2.765 1.404-1.535.087-.286 1.032 1.712.702 1.294 1.513-1.536.549-.833-.417-.615.505 1.383 1.25-.527.812-2.062-.33-.242-.57-.702.659 1.47 1.162-.943.746.263 1.229h1.185l-1.185.768-1.382.241-.768-.746v1.229l-.68 1.162 1.185.505 3.005.987.439 1.339 1.207.329 1.689-.746-1.36 1.228v1.01h-1.887l-.856-.834-3.093.088-2.15 1.886.702.681 2.216.065.175 1.426 1.119.988-.087 1.645-1.295-1.316h-1.009l-1.031 1.25.088 1.404-.615.329 1.031 1.163.264 1.404h-.944l-1.206-1.075-.768.571.088 1.733 1.886.505.329.899-.153 1.163-2.501-1.558-1.031.571-.088 1.733.702.175-.088 1.909.856 1.821 1.272-.088.966-1.645h1.009l-.944 2.479-1.36.241-1.887 1.997h-1.645l-1.36.57-.088.987-1.821.746-1.448 1.251 1.558.746-.527.921-2.83.241-1.294 1.734.175.833 2.238.659-1.711.833-.878 1.799-1.711.088-.329-1.645-1.119-.659-.68.988h-1.47l.504 1.228-1.031.922-.263 1.25.614 1.075h-2.588l-1.097.571.175 2.237-1.974 1.251.263.746-.351 2.238-1.47 1.162-1.975 1.8.615.833 2.216-1.404 1.206.088-.175 1.228-1.448.593-.176 2.15 1.295 1.667 2.391-1.338 2.567-.329 3.444-3.225v-1.492l-1.799.504 1.536-1.996.439-2.326.768-.153 1.031-.922 1.974.351 1.207-.087-3.181 1.974-.088 1.404 3.093.922-1.031 1.316-1.623.176-3.181 3.225 1.974.987-1.119 1.404.088 1.997-1.975-.176-1.645-1.558-2.304.066-1.36 1.097-.109 1.821-1.799.987-1.712.9 1.295-1.404.943-.658-1.382-1.734v-1.996l-1.536-2.15h-1.557l-.856 1.492-2.15.241v1.009h2.742l-2.83 2.479-1.887-.833-1.623.241-2.15 1.909 1.206.241 1.119-.483.593.571-2.326 1.404-1.031 1.25-1.009-.987h-1.558l-.263.987 2.501 1.405h2.918l-.593 1.491 1.273.505-.088 1.316-2.567-.746-.417-1.491h-1.996l-1.953-1.646-.438-1.338-.768.088-.351 1.667 1.974 2.567 2.063 1.492 1.799.241.943.987-1.887.088-3.093-1.163-2.918-3.137-1.382.834-1.799-1.339h-2.238l-1.097-.899-.878.987.351 1.646-1.206 1.075 1.733 1.755 3.686-1.075.592.724-1.623 1.097.855.482 2.83-1.316h1.295l-.68 1.163-3.269 1.316-1.295 1.821-2.216-.57-1.908-2.414h-.922l-1.119.922-1.645-1.404-1.382.833-.944-.592-1.711.987.527.834 3.51.505 2.238 1.404 2.742 1.404-.768 1.733.944 1.404-1.624.834-.702-.834-.066-2.808-1.909-.658-2.062.329.79 1.404-.351 1.075-2.501-1.492-2.15 2.15 2.15 1.426-1.711.154-1.207.504-.592-2.084-3.269-.088 1.031 2.085-1.36.921-.615-1.997-1.886-1.667-1.032.329.264 1.163 2.15 1.909-.944 1.228.944.922 2.479-.746 3.357.658 2.15 1.338h3.247l1.031-.746h1.645l-2.15 2.085-2.918-.439-1.119.592-3.51-1.755-2.238.592-1.031-.416-1.711 1.426-2.413.307-.176.921 3.708 1.58-1.382 1.47 1.799.351 1.206-.768h3.006l-2.238 1.514h-3.181l-.856.395-.943-.242-.088.658 1.624.681h1.206l-1.886 1.053-.922.241.263 1.009 1.01.702.789 1.229 2.567-.11 1.361-.965 3.422-.439 2.326.57.833.571 1.558-.987.044-1.405 1.536-.416.548 1.206h1.689l2.414-1.733 1.119.285-.461.922-1.207.855 2.194.527 1.009-.987-.417-1.185 1.624-2.304-.417 1.755 1.755 1.997-1.338 1.645-2.984.702-1.47 1.075.812.659-1.009 1.645-2.567.088-.088-.988 1.273-.987-.307-1.996-2.085-.285-2.325 2.193-.329 1.163-1.58-1.996-1.931-.417-2.435.417-1.426-.417-2.786 1.338h-1.36l-1.624-1.053-.592.22.899 2.018-.57 1.075 1.031.856 1.624-.351.899-1.032 1.294.044-1.469 1.514.175 1.777-.899.746-1.58-.877.724 2.413 1.294 1.053 3.16-3.379 2.237.9-.943.921.241 1.733-2.654 1.405.439.745 1.623.242-.856 1.338 1.207 1.733-.768 2.085.68.065 1.711-2.567 1.536-.811.351-2.172 4.125-1.646 2.062.176 1.711-.505-1.206.746-2.128 1.558v2.589l.68 1.557-1.646-1.316-.329-2.326-1.206-.065-1.448 2.544-1.207.417 2.062.746-1.821 2.326h-1.448l-.68 1.492 1.119.482h3.071l.79 1.251-2.237.175-.768 1.229-.176 1.492-2.413-1.558-1.119.483-.417 1.821-.526-2.15-1.448.921-1.975 2.567.768 1.975 3.006 3.071.592-1.733.79.658 1.623-.768-.417-.899.922-2.063 2.413 1.734-1.119.658 1.382 1.404-.526 1.821-1.448 1.009 1.272 3.05 1.031-1.163 2.765-.724 1.097 1.47-2.304.175-1.119.834 1.207 1.821-.263.746-4.037-2.83-1.382.504-1.273-.987-1.711.088v1.645l-1.207 1.251 2.83 4.629 2.326.417 3.071 2.567 4.301 1.579.526 1.317-1.031.504 1.645 1.492 1.492-.702-.702-2.106 1.382-.044 1.404 1.119-.241.614 2.26 2.721 1.031-1.229.9.461 1.93-.878 2.348-2.194 1.031-.197.943-1.031.505.109.548 1.58 1.382.132 3.884-3.796-.154-1.338-1.711-2.062 2.984 1.821 2.391-2.304-.636-.79 1.426-.943-.264-1.492 1.756-1.119 1.886-.329.461-1.316-1.799-2.194.636-1.448-1.579-2.063-1.931-1.36.088-1.821 1.119.658 2.15 2.326.855 3.006.768.833 1.36.198-.285 1.206 1.009 1.273 2.194-.944-.57-1.162-.965-.746.768-1.361 1.842 1.558.066.79 2.83-2.545.724-2.369-.68-2.085-1.492-.636-.768-1.207 1.032-.658.153-.943 1.119-.11.856-.965-1.163-1.316.11-2.019 1.711-1.228 1.58 1.513-1.295 1.975.439 2.611-.483 1.777 1.295 1.974.329 1.448 2.369 2.348 2.699-.242 1.097.9-.658.856 1.382.921 1.316 2.216z" stroke="#224479" stroke-miterlimit="10" stroke-linecap="round" stroke-linejoin="round"/><path d="M342.876 109.232l-1.953-4.037-2.128-.702-1.141-3.159.724-1.58v-4.256l-.483-1.667.571-1.8-.746-3.927-1.273-1.777-.373-3.005 1.075-1.624-.702-2.545-2.983-.197-.242-2.172 1.01-2.501-.615-3.16.834-1.974-1.053-1.58-1.558-.153-1.952-2.61-.834.24-.987-.153-.812-2.062-2.194-2.436-1.558-.395-1.733-1.03-4.41-.308-2.939-2.128-4.015-4.497-2.94-1.426-1.843-2.129-.856.395-2.545.483-2.61-.79.175 2.194 1.799.944.571 2.303-1.8.944-.329 3.378 1.229 1.733v2.699l-1.053-.636-1.163.395-1.47-1.185-2.61-.242-2.304-1.492-3.752-.943-2.457 1.25-3.269-.065-1.141.702 1.799 2.764-.57 1.185v1.185l-1.316 1.184 1.382 2.282-1.711 1.492-1.47.241-1.075-1.184-2.523-1.097-2.37 1.733-1.711 3.62-1.558.79-.658 2.676-1.382 1.821-1.47.724.066 5.046 1.316 1.404 1.229 3.247-1.075 2.523-3.181 4.256-3.116 5.288-.153 2.216-1.799 1.491-3.84.79-3.598 2.041-.087 2.215 1.623 1.58.088 3.159-1.141 2.765-1.141 4.958-.175 5.199-3.84 9.083-.153 2.677 1.053 1.667.329 4.103-1.975 2.589-3.839-.242-3.028-.614-2.457 1.426-2.523 4.322-.834 4.892 1.075 5.617.659 5.748-.988 3.401 1.229 2.983.57 4.432-.724 4.015.154 4.102 3.269 1.58 3.927 4.19-1.075 2.436-.066 3.554-5.156 1.645-.175 1.821 2.15 4.015.812 4.98 1.623 2.216-1.623 3.379.153 2.281-.965 1.668-3.532.307-.724 1.272 1.141 2.216-1.558.79-.9 1.887 1.712 2.918.504 6.779-1.228 2.216-1.317-2.216-1.382-.922-.197.22-1.755 1.009.438 4.695.9 1.273.219 3.554 1.624.833.592.812-.351 2.326 2.501-1.032-1.558-1.579.308-1.689 1.075.043-.527 1.075 1.887 1.075.614 1.163-2.282 1.799-.394 1.733.702 1.69-.308 2.391-1.031 1.053 1.295 1.777 1.865.439 1.14 2.83 1.032.834 2.062 4.059.241 3.071 2.326.9.592 2.062 2.15 2.084 2.413-1.338.681 2.654-1.624 2.984-2.852.329-.417 1.163 1.558.921.329 1.975 2.325.658 1.032 5.134-1.295 1.996 1.207 1.075h2.238l5.748-1.491 2.83.987 2.216-1.975-.154-1.755-1.294-1.075 1.557-3.554 3.511-.417.768-3.466.614 1.579 4.102.659 2.48-1.339 2.084.922 1.206 1.492 2.48-2.896.767-4.322 1.799-1.821.439-5.375 1.031-1.734-1.974-1.667.263-2.238 1.887-2.062-1.799-2.238 1.952-1.733-2.479-1.492 1.119-1.909-1.36-2.062 2.479.9 2.655-.483-2.414-2.15 1.207-2.479-.154-1.338-3.356-1.163 4.212-.154-2.238-2.238-1.887-.263 1.295-1.492h1.185l.351.505 1.294-1.163-.088-1.404 1.887 1.404.241-2.238 1.558-1.645 1.536-.176-.329-1.404.855-1.163.768 1.01-.417 1.974 1.273.088 1.974-2.896h1.558l1.536-1.251-.263-2.062-1.361-1.163-2.764-.746-1.953 1.075-1.118-.504-1.821.987-1.448-1.887-2.414-.416-1.448-.9-3.005.066-.264 1.075-.855-.658-3.423-.329-.088-.834 1.624-.658 1.887.921 1.623-2.084.966.921 1.711-.504.768-1.404 1.974.417.944.987 1.382-.088.066-1.316 1.119 1.075 2.588.921-.263 1.404 1.887.988 3.093-.746.768-2.238 2.83-2.984 1.47-3.313-2.238-2.062v-1.645l-3.334-1.909.592-1.251-4.037-2.983-.504-1.909-1.558-1.229-1.975 2.304-1.206-1.975-1.119.659v-2.063l-1.536-.329-1.119-1.667-1.294-1.317 1.557-1.908-1.206-2.392 1.031-.592v-1.316l-1.711-.68 1.711-2.063-.68-3.225.526-.658 1.448 1.229.242-2.15-1.69-1.734.593-3.225-.439-2.501.592-.811-.307-2.721-2.611-3.181 1.799.614 3.291-.526 1.843-2.655-.921-1.887.614-1.162 1.975.504 3.071-2.567.176-1.25-1.536-.329.68-1.821 1.558-1.492.943 1.163 1.031-.242.592-2.325h.944l.943 1.404 1.558-1.317v-2.479l1.031-2.237h1.711l.242 1.557 1.382.088 1.119-2.238 2.742-1.492-.856-1.974.352-1.909 1.206 1.492 2.304-2.15 1.448.088 2.259-3.642-.351-3.576 1.624-1.909 1.448-.066 2.238-2.742h-1.624l-1.272-1.733 1.36-.505-.702-1.404-1.777-.329-2.238-1.646 2.742-.504-.504-1.58 1.36-3.795.68-1.251-1.075-1.338-1.382-.044-.987-1.558.724-.79 1.382.681.461.724.877-.242.11-1.272-2.084-.922 1.711-.899 1.931.131 1.864-1.667-1.492-.987-1.404-2.633 1.492.483 1.031 1.206 1.668-.373.768-1.733.263-2.106 1.185-.899 1.382 2.413 1.799-2.172.855 1.821 1.887.746.944-1.821 1.82.987 2.655-1.645 1.273 1.492 2.15.153 1.47-.987.087.11.11-2.392-1.272-1.316z" stroke="#224479" stroke-miterlimit="10" stroke-linecap="round" stroke-linejoin="round"/><path d="M402.989 197.405l3.027-5.2 3.182-4.563 2.369-5.441 4.585-7.503 3.269-7.81-.724-3.313-4.914-5.441-2.94-.943-5.243-7.109.899-3.225 2.128-2.83-.241-3.225-3.423-2.282-1.228-2.523-.176-4.014.9-1.032-.988-2.062-2.786-.461-1.47-1.821v-3.62l1.558-1.974-2.216-.549-.088-1.886.483-7.109 2.062-.482-5.068-11.343-4.673-8.293-.987-3.071-2.699-2.83 1.887-5.2 2.282-3.554 1.075-3.225-1.404-1.25-5.156-3.16-.899-2.062-1.734-2.523-3.093-1.668-1.558-.24-1.952-4.981-1.558-1.8.812-3.707.504-2.918-1.821-.592 1.843-1.229 2.984-1.14v-.088l-.417-4.454 1.997-3.05.373-2.26-2.26-2.303-.658-1.777-3.774-.395-2.457-.877-1.602-1.58-2.742-3.357-2.128-1.404-4.827.088-1.886 1.974.175.944-1.711.395-2.962-.549-2.369 1.032.153 1.25-1.799 2.37-1.316.79 1.053 1.645-.724 1.733-.57 5.594 1.075 3.313.811 1.887-.811 1.426-1.975 1.272-1.953-.153-1.799 1.667-1.469.79-1.317 2.37-2.523-.395-3.773-2.523-2.37-.088-1.557 1.58-2.787 2.61-5.331-.175-3.181-1.25-1.799-2.37-.9-2.282-4.826-3.795-1.711-2.458-2.129-.307-1.557 1.25-.417 1.888.658 1.645-.768.483-.965-.44-.461.659 1.865 2.15 2.94 1.426 4.015 4.498 2.94 2.128 4.409.307 1.733 1.031 1.558.395 2.216 2.435.812 2.062.987.154.812-.241 1.974 2.61 1.558.176 1.075 1.58-.834 1.974.615 3.181-1.032 2.501.242 2.172 3.005.198.702 2.545-1.075 1.623.373 3.006 1.273 1.777.746 3.927-.571 1.821.483 1.667v4.256l-.746 1.58 1.141 3.159 2.128.702 1.953 4.015 1.272 1.317-.11 2.391.768.812 2.15.088 2.063 2.084h4.3l2.918 2.72-1.624.746 1.119 1.492.176 3.313-.79.658 3.422 3.071-2.479-.504-.943.329 2.918 2.304.087 1.316-3.422-1.821-2.852.088-3.006 1.886.088 1.734-2.062 2.084v1.492l-.944.658-3.51 3.554-.527 3.554-.855.263-.614-1.075-1.032.176.768 2.15-.504 1.733-2.326.242-1.382 1.82.592 2.743 1.536 1.075-2.742-.834-.79-.987-1.536.57-.856 2.326.351 1.075-1.535-.658-.593.833 1.536 1.47.044 1.031-1.36 1.405-.636 1.25-1.997 1.229-1.075-.746-.263-.79-1.492-.461-1.536.527.549 1.974-1.273 1.031.9 2.063-.856 2.018-1.075.241-1.119 1.821.856 2.194.614.461-.68 2.15.439 1.426 1.448-.658 1.206 1.229-.395 2.347-.592 1.163.768 2.062-.483.943 2.238 3.533 1.119.899-.79 1.317 1.711 2.566-1.623.659.329 3.4-.768 1.338-.088 4.476 1.295 1.58-1.207 2.391v1.645l.856 1.163 3.005-1.316 1.119.834.505-1.317 2.589 2.655 1.536-.242 1.557 1.317 3.269-.329.944.417-.856 1.557h1.207l2.742-1.821v1.492l-1.382 1.843 2.83 3.883.592 1.317-.768 2.237.768.417 1.207-3.225 1.36-.658.263 1.404 1.975-.833 1.624-.088 3.685-2.567h2.063l4.453-2.808.263-1.163 2.918.834 1.975-.33 1.799-2.654.439.899-.944 1.821 1.207.505 1.185-2.655 1.031.264-.944-2.238.944-.922 1.119 2.15 1.294.242.527-1.58 1.119 2.391 1.469-.504.176-1.492 1.294.329.527 1.163 1.448-1.317 2.918-.57 1.623 1.404 3.532-.504.264-1.163-.944-.922 1.031-.57 1.536.504.351 1.317 2.238.57s.439-1.097.878-1.843l-.417-3.137 5.221-4.805 2.699-1.272.022-.022zm-36.487 54.672l2.72-.636 2.852 2.062 1.47-.154.483-1.908 1.645 1.184.812 1.58 1.47.088 3.532 2.128 1.141 2.523 2.128 1.031 1.711 2.369 4.015-1.579 3.379.46 1.689-2.435-.329-2.062 1.799-1.492v-2.216l-5.221-9.148.811-8.206 1.317-.877.789-3.116 1.778-2.194.307-.68-.132-.373-1.097-1.755-.307 1.01-9.083-.264-4.037-2.479-4.212.088-2.216-1.075-1.886.482-2.326-1.974-.176 1.492-1.448-.241v.899l1.273 1.075-2.062 1.338-1.031-.68-4.015-.153-.79-.988-.593 2.15-2.062-.263-2.238.658-.329 1.843-1.47-.351-3.598 1.492-1.294 2.062.088 6.977 1.448.241.789-.57 2.041.153-1.031 1.58-1.624.154.176 2.83 1.886 2.808 3.182 2.808 1.118-.241.176-1.821 2.216-1.733.877 1.579-1.206 5.705v1.228l1.185-.417 3.51-1.996z" stroke="#224479" stroke-miterlimit="10" stroke-linecap="round" stroke-linejoin="round"/><path d="M335.68 281.735l3.181-2.808 5.134-1.184 3.949.372 2.699-.175 1.47 1.207 2.215-1.668 2.304-.329.483 1.36 1.952.066 1.887 2.062 3.532-.087 1.053.482 3.686-2.303 3.993 1.821 3.532.548 2.94 3.247 2.457.395 2.611 3.379 3.269.153 1.119.944 3.598-1.58 4.739-.636.504-2.83 1.953-.966.833-2.215 1.887-.417-.395-3.094-1.557-2.062-1.229-3.137-.746-1.031-1.47-2.677.329-1.426-.658-1.821-.965-.856.483-1.031-.33-1.887-5.638-.789-4.015 1.579-1.711-2.369-2.128-1.031-1.141-2.523-3.532-2.128-1.47-.088-.812-1.58-1.645-1.184-.483 1.908-1.47.154-2.852-2.062-2.72.636-3.511 1.996-1.184.417v2.742l1.031 4.805-1.295 3.796-3.598 3.729h-2.676l-2.655-2.479-.351-1.909-5.309-5.462-.176-3.226-.943.088-1.975 1.909-3.181.746-1.119.987-2.303.154-1.733 2.501.263 2.238-.944-.329.088 3.795-3.006 3.401-.263 2.15.176 2.062-1.624 1.492 1.295 5.221 1.272 1.251.022.373 1.996-.571.878-2.216z" stroke="#224479" stroke-miterlimit="10" stroke-linecap="round" stroke-linejoin="round"/><path d="M355.886 307.935l1.558.153 1.228 4.015-.175 2.611 1.448 2.238 2.501-1.667 4.103-1.251 2.939 1.404 2.94-1.404 1.975-.176-1.141-3.159 3.269-.153 1.141-2.852 1.974-.615.812 1.251h2.457v-2.37l-2.94-1.426.658-3.312 1.624-.308 2.128-3.641 3.927-1.734v-2.216l-1.799-.789 2.633-3.313-1.119-.944-3.269-.153-2.611-3.379-2.457-.395-2.94-3.247-3.532-.548-3.993-1.821-3.686 2.304-1.053-.483-3.532.088-1.887-2.063-1.952-.065-.483-1.361-2.304.329-2.215 1.668-1.47-1.207-2.699.176-3.949-.373-5.134 1.184-3.181 2.809-.877 2.215-1.997.571.241 3.269.768 2.72-.943 1.58.57.307 3.884-.812 3.093 4.125 2.94 1.404 4.19-.943 1.558.789.395 2.128 1.404.308 1.141 1.184-1.317 1.733.373 3.862 2.238-.22 2.545 1.975z" stroke="#224479" stroke-miterlimit="10" stroke-linecap="round" stroke-linejoin="round"/><path d="M399.937 283.209l-1.952.965-.505 2.83-4.739.636-3.598 1.58-2.632 3.313 1.799.79v2.216l-3.927 1.733-2.129 3.642-1.623.307-.658 3.313 2.94 1.426v2.369h-2.458l-.811-1.25-1.975.614-1.141 2.852-3.269.154 1.141 3.159-1.974.175-2.94 1.404-2.94-1.404-4.103 1.251-2.501 1.667.527.834 1.711 5.046 1.558 2.282.504 2.698 1.295 1.097.088 6.867-2.304.79-1.711 2.676.899 3.247 2.282 3.554-.088 1.075 1.799-.219 3.686 1.821 1.974-1.031 7.92-1.097 3.599-.154 2.391-1.908 1.382.087 2.786 1.492 6.538.944 2.786 1.338.483 1.272 3.927-1.491 1.887 1.645 1.558-.066.965-.965 3.444.482 1.558.703 3.532-2.085 3.116.395.46 2.084 1.865.615 2.106-2.501 2.37-.11 1.93 1.207 3.269-.944 1.953 1.668 2.457-.329.241-3.708 1.646-4.169 3.357-.329 4.804-1.184.307.065v-2.764l-2.61-2.852.307-2.984-2.282-3.488-.153-2.677.987-1.755 2.457 2.216 5.88-.79 2.303-3.62 1.295-1.119-2.94-1.886-.329-2.063-4.256-3.62-3.774-.965-.965-3.62-2.304-1.579-2.962-3.95-1.294-3.005-2.611-2.699v-3.312l-1.974-2.216.811-2.831-.658-2.544-4.914-1.734h-1.624l-1.316-1.579-3.269.965-2.962 2.194-2.128-3.642-2.457-.307-2.786 1.272-2.282-3.488-2.457 1.426-1.975-1.272-2.786.636-.834 2.216z" stroke="#224479" stroke-miterlimit="10" stroke-linecap="round" stroke-linejoin="round"/><path d="M527.802 404.006l2.457-3.773 5.485-.329 2.04-1.492-.417-2.765 1.404-4.015-.504-3.159-3.269-2.216.746-4.717 2.369-.482 1.887-2.435-.088-2.918-1.557-.878-.988-2.523-1.711 1.645-3.422-.614-2.962-1.755-2.457.395-2.129-1.251-3.005-.087-4.103-.856-1.557 1.492-1.054-2.128-3.51-2.128-2.545-5.353-1.799.219-3.839 2.852-2.457-.483-2.611.702-3.203-1.645-2.04 2.216-5.156-4.827-1.229-3.532v-3.006l-2.128-.329-.307-2.281-2.304-1.887-6.296.877-3.116-3.949 1.317-2.457-2.37-1.887-1.733-5.046-2.611-.153-2.852 1.492h-5.814l-5.638-1.821-1.733 1.514.241 2.281-2.61.549-1.821-.417-.308-.066-4.804 1.185-3.357.329-1.645 4.168-.242 3.708-2.457.329-1.952-1.667-3.269.943-1.931-1.207-2.37.11-2.106 2.501-1.864-.614-.461-2.084-3.116-.395-3.532 2.084-1.557-.702-3.445-.483-.965.966-1.558.065-1.887-1.645-3.927 1.492-.482-1.273-2.787-1.338-6.538-.943-2.786-1.492-1.382-.088-2.391 1.909-3.598.153-7.92 1.097-1.975 1.031-3.686-1.82-1.799.219-.153 1.843.131 5.024 1.426 1.426 1.317 3.203 2.742 1.645-.965 1.229.307 1.711.834 1.339-.637 3.269-1.886.065-1.712 1.755-.987 3.291-6.955 7.504.505 3.005-.176 3.313-2.15-.154-2.347 4.805-.483 3.708-.482.307 2.698 2.457 2.852 1.799.79 1.997 2.238-.088 1.47-1.338h2.216l4.08 2.281 3.182.088 3.027 1.338 1.075 1.733 2.37 1.097 3.598-1.097 2.369-.175 1.887-2.128 7.613-1.251 2.61-1.579 2.633-.439-.417-2.721.395-1.25-.483-2.918 1.8.702.482-.702 2.216 1.251.724-1.097h2.457l.9-.878 1.645 2.523h2.94l3.51 3.093 3.686.395.571-1.272h1.075l3.51 3.4 2.852 1.405.746 3.861-.242 2.611 2.545 1.272.395 1.185 2.787 2.435 3.268 1.887.417 1.974-.504 1.821 1.404 1.887-.417 1.185-3.357.088-1.799-1.427-2.94.944-2.215.088-.33 3.949.088 2.676-1.141-.175-2.128 3.795-.087 1.975-1.887-.549-1.624 1.163 1.821 3.05 3.116.636 4.168.088 1.843-1.295 3.532-.329 1.909 1.514.022-.022.439-1.909-1.119-1.316.263-1.316.088-1.58.943 1.404h1.448l4.3-4.98-.68-1.404h1.207l2.303-2.896v-2.721l1.646-1.25 2.654-.154 2.238-2.742 1.273 1.163-.088.57h2.062l.944-1.229.943-1.491.79 1.228 1.36.987 1.733.593 3.423-.834-2.392 1.404-1.448.746-2.062-.614-3.949.482h-2.501l.965 1.383h4.125l3.335 1.053-.483.833-1.229.746 1.668 1.404 1.579.132 2.063 1.141 2.391-1.185 2.742-.461 2.567 1.076 1.799.987.856-1.558 1.053.461.504 2.742 1.295 1.492-.944.57-3.356.571-4.037 2.325-2.304 3.401 1.975.834 1.536-1.251 2.479 1.163 1.294-.176 3.62 2.743.176 1.579-1.383 3.971-.614.834 1.997 1.47 4.102.176 3.949-1.734 5.244-3.817 3.598.088 1.974-2.655 2.655-1.404 4.476.746 3.861-.329 1.382-1.58-1.031-1.974 1.119-.922.855-1.404-3.005-.153-3.62.394-.856 2.238-2.128-1.316-1.294.066-1.909 1.908-1.273-.482-5.484-5.814-.856-2.896-1.733-2.304-.922.571 1.097 2.808 3.949 4.651 3.774 3.466-1.119.593-2.567-.746-1.294-1.339-.505-2.479-1.207-.746-1.36 1.251.329-1.755h-1.031l-1.031.68-.088-1.009 1.119-1.317-.768-1.075-1.294.659-1.382-.988-1.36-1.579-3.598.241-1.47-.899.351-.922 2.479.417 1.382-1.229 1.623 1.163h2.414l.329-1.338 2.062-.329 3.445-3.489.438-1.228 1.185.746.351.899-2.238 2.567-.855.505.526.987 1.36-.746 2.414-3.313.504-1.404-1.272-1.558-.702-1.338 1.031-.066 1.47 2.392 1.448.241 2.325-1.404 3.006.658 1.887-1.404 2.325-.241.856.241 2.391-2.479 1.207-1.667 2.501-.154.943-1.909 1.448-1.075 2.831.242 2.83-1.163 1.206.175.264 1.163 2.128-.724.022-.197.636-4.937 1.47-.636z" stroke="#224479" stroke-miterlimit="10" stroke-linecap="round" stroke-linejoin="round"/><path d="M405.533 404.248l4.585 3.949.483 2.194 6.055 4.585.834 3.006 1.952 3.159-.482 10.267 1.47 3.006.153.263 1.624-1.163 1.886.549.088-1.975 2.128-3.795 1.141.175-.088-2.676.329-3.949 2.216-.088 2.94-.943 1.799 1.426 3.357-.088.417-1.185-1.404-1.886.504-1.821-.417-1.975-3.269-1.887-2.786-2.435-.395-1.185-2.545-1.272.242-2.611-.746-3.861-2.852-1.404-3.511-3.401h-1.075l-.57 1.273-3.686-.395-3.51-3.094h-2.94l-1.645-2.523-.9.878h-2.457l-.724 1.097-2.216-1.251-.483.702-1.799-.702.483 2.918-.395 1.251.417 2.72 4.476-.768 1.316 4.915z" stroke="#224479" stroke-miterlimit="10" stroke-linecap="round" stroke-linejoin="round"/><path d="M431.533 437.159l-1.842 1.294-4.169-.087-3.115-.637-1.975-3.312-1.47-3.006.483-10.268-1.953-3.159-.833-3.005-6.056-4.586-.482-2.194-4.585-3.949-1.317-4.914-7.108 1.207-2.611 1.579-7.613 1.251-1.886 2.128-2.37.175-3.598 1.097-2.369-1.097-1.075-1.733-3.028-1.338-3.181-.088-4.081-2.282h-2.216l-1.47 1.339-2.237.087.285.703-1.163 2.435-2.698.482-2.37 4.257-2.369 6.691-3.993 5.77.066 2.128-2.041 1.887-3.027-.219-1.075 1.886-1.953.549-2.26 2.238 2.085.702.701 1.382 3.642 4.146.746 1.953 2.94 1.492 3.006 2.172-1.316 2.742.438 1.141 3.752 1.207 1.075 1.799 2.369-.944 1.799 1.58 1.887-2.435 3.927.789-1.887 2.041.33 1.667.68 2.326 3.071.263 1.47 1.185-.153 1.667-.834 1.185 1.25 1.974 2.765-1.755 3.027.176 1.229 1.25 1.141-.307 3.927 1.426 3.269-1.514 2.216.636 1.886-.789 2.282.789h1.975l4.234.483 1.404-.943 2.852-.878.987-1.579 6.714-3.006 2.939-.461 3.511.307 3.707 1.492 1.207 1.229 2.15-.79 2.962 1.338.483 1.097 2.698.132-.79-2.633 1.207-1.974.175-3.247-.943-1.58 1.448-1.47.592-2.325 3.971-.264 2.392-.482 1.623-2.809v-1.667l-1.184-.899 1.162-1.141-1.908-1.514-3.533.329z" stroke="#224479" stroke-miterlimit="10" stroke-linecap="round" stroke-linejoin="round"/><path d="M346.978 396.194l-4.585.329-2.611-.724-3.773.329-1.953 2.918-2.04 1.58-.264 2.04-3.181-3.225-3.686 2.984-3.181 1.031-.329 2.04-6.055.571-3.839 1.25-4.015-.702-7.569-4.234.219 1.47.329 2.216-.416 2.194-4.915-.066-.483.943 2.041 2.282-.988 2.523-.241 2.062 1.229 2.041-1.777 2.15-.505.153 2.852 3.159.439 3.598 2.018.417 4.651 4.256 2.392.856 1.777 1.36 5.902.944 4.168 1.404 1.799-2.194 1.229.636 1.579-1.667 2.611-1.295 1.887.264.68-1.032 2.698-2.194 1.734.549 2.369.527 1.602.526 2.259-2.238 1.953-.548 1.075-1.887 3.027.219 2.041-1.886-.066-2.128 3.993-5.77 2.369-6.692 2.37-4.256 2.698-.483 1.163-2.435-1.075-2.699-2.852-1.799-2.699-2.457-2.544 1.58-3.511-.79z" stroke="#224479" stroke-miterlimit="10" stroke-linecap="round" stroke-linejoin="round"/><path d="M351.322 383.911l-4.256-.175-1.448.636-1.755-.79-1.843.241-1.426 1.426-1.602-1.075h-2.698l-1.777-.197-1.799.592-1.36 1.975-2.128.088-.615-.33.044.11-5.243-.461-2.458 2.129-2.852.241-3.181 3.071-4.19.549-4.344 1.492-1.053-.856-2.611.066-2.698 1.755-.571-.132-.241 3.489.68 4.629 7.569 4.234 4.015.702 3.839-1.25 6.055-.571.329-2.04 3.181-1.031 3.686-2.984 3.181 3.225.264-2.04 2.04-1.58 1.953-2.918 3.773-.329 2.611.724 4.585-.329 3.511.79 3.027-1.887.483-3.708 2.347-4.804h-.307l-4.717-2.677zm-20.225 95.918l2.391-2.764.812.153 1.382 1.975 1.974-2.37.329-1.184 1.712-1.426-.176-2.436-2.852-.482-1.799-1.646h-2.545l-1.053-1.184v-1.734l-2.413-2.259-.198.197-1.799-.548-2.391-1.58-1.382.943.088 1.668 2.04 1.25.724 1.58-1.689.877-1.646.154-.899 2.194-.088 2.94-1.316 2.369-1.075.549.767 1.009 2.238.899 4.256 5.134.329 1.668 2.523 1.206.22-4.015 1.536-3.137zm-20.365-8.209l-7.92-8.6-9.171-7.745-.329-1.25.746-.79-1.492-1.821-.394-1.821-2.304-2.523-1.448.088-.088-1.58.9-.855v-2.853l.899-1.031 2.699 1.975.899 1.514 1.47-.329.088-1.492 2.04-.329 1.382.087 1.163-1.184 1.777 1.031.988-.878 1.799.395.987 1.821 1.47-1.031 2.523.878 1.821-.724.548.724 2.786-.33 2.392.878 1.47-.241 2.281 1.821 3.182.087.285.33-.285-1.756 2.215-.789h1.053v-.878l-2.106-.461-1.162-.943-.637-2.852-1.404-3.225-1.47-.79-1.799 2.194-4.168-1.404-5.902-.944-1.777-1.36-2.391-.855-4.651-4.257-2.019-.417.066.505h-4.914l-6.889 3.488-.505 2.831-3.598 1.755-.658 3.795-2.282.154-4.256-1.909-2.303.636-2.94 2.063-3.993.219-.022.241.702 4.3 2.567 2.326-.264.834 1.032.811 2.742-4.3.439-2.325 1.733-1.887 2.742-.088.593 2.15 2.237 1.733.681 3.247 1.623 3.05 3.445 3.071.855.154 1.975 2.084-1.712-.592-1.974.263-.856 1.821 1.01 1.887h2.501l2.479 2.325 2.501.834.855 1.909 1.207 1.316 2.567-.504 5.002.394 2.742 1.339 5.507 5.463-1.557.175-2.567-1.338 1.36 1.667 2.369.527v-.022l.812-1.887z" stroke="#224479" stroke-miterlimit="10" stroke-linecap="round" stroke-linejoin="round"/><path d="M321.619 474.149l.087-2.94.9-2.193 1.645-.154 1.69-.878-.724-1.579-2.041-1.251-.087-1.667 1.382-.944 2.391 1.58 1.799.549.965-.944-2.523-2.83v-2.369l1.054-.724 1.974 1.031.812-1.251-1.317-1.338-1.711-.088-3.269-2.523-.088-1.492 2.304-3.334.307-2.831-1.382-.065-.987.702-.9-1.097-3.181-.088-2.282-1.821-1.47.241-2.391-.877-2.786.329-.549-.724-1.821.724-2.523-.878-1.47 1.031-.987-1.821-1.799-.394-.987.877-1.777-1.031-1.163 1.185-1.382-.088-2.04.329-.088 1.492-1.47.329-.9-1.514-2.698-1.974-.9 1.031v2.852l-.899.855.088 1.58 1.448-.088 2.303 2.523.395 1.821 1.492 1.821-.746.79.329 1.251 9.171 7.744 7.92 8.6-.812 1.887v.022l1.426.307 4.278.658 1.185-.57 2.413 3.137 1.075-.548 1.317-2.37zm-49.278-35.785l2.303-.637 4.256 1.909 2.282-.154.658-3.795 3.598-1.755.505-2.83 6.889-3.489h4.914l-.505-4.102-2.852-3.159-2.764.877-4.958 2.677-1.185-.11-1.645.197-2.589 1.141h-2.457l-2.699 1.031-1.47-1.689-5.09.022-1.799-.175-2.589 3.62.812 1.733-1.47 2.216.549 3.729.197.044 2.216.987-.066 1.492-1.908.505-.066 1.996 3.993-.219 2.94-2.062z" stroke="#224479" stroke-miterlimit="10" stroke-linecap="round" stroke-linejoin="round"/><path d="M296.672 418.045l-1.228-2.041.241-2.062.987-2.523-2.04-2.282.483-.943 4.914.066.417-2.194-.329-2.216-.22-1.47-.68-4.629.241-3.488-4.431-.988-1.953-1.426-3.027.637-3.182-.154-2.786-1.887-4.168-.153-2.304-.878-.899 2.04-1.141 1.032-.154 1.667-3.115.153-1.053 1.185-5.726-3.159-1.602-.154-.395 1.975.11 2.172h-1.799l-1.317 2.172-2.61 1.25-3.028 3.708v1.426l2.786 1.338.329 2.041-1.14.79-2.545-1.405-2.545.702-2.611-.702-1.799.22-3.598 2.303-1.953.395-1.799-.57-1.974.483-1.624-1.032-3.115-.46-3.028.395.242 1.492-.724.877-2.874-.724-1.558-1.645-2.018.724-1.317.636h-.592l1.404.921-.154 1.536 1.295.987-.066 2.041 1.777.087 1.404-.548 2.37 2.216 1.952-1.755h1.799l.922 1.821.044-.066 3.773 1.579 5.902-3.312 2.457.636 3.927-.307-.329 2.194 5.572 3.159 6.889 1.272 3.752-.329 1.645 1.426-.022.022 1.799.176 5.09-.022 1.47 1.689 2.699-1.031h2.457l2.589-1.141 1.645-.197 1.185.109 4.958-2.676 2.764-.878.505-.153 1.777-2.15zm-27.489-87.797l-3.182 1.58v1.491l3.511 3.642-.395 2.216 1.645 2.04v1.668l.966 2.282-.9 1.886 2.04 4.498 1.514.812 1.36 1.689.154 5.814-.636.965.833 1.733.988-1.097 1.974.351 1.097-.57 4.629.68-.153 1.272 1.952 1.931 1.843-.241 1.69 1.404-1.097 2.413.899 1.295.812.438-.11 2.107 1.558.614 1.075-1.097h1.448l-2.611-3.313 1.075-.702 5.309 2.83 3.357-.395-.57 1.909 2.457 1.887 4.234-.944 3.357 1.01 6.867 4.826 2.128 3.532 1.952.088 1.01-1.097 3.027.066 1.711 1.733.615 2.808.614.329 2.128-.087 1.36-1.975 1.799-.592 1.777.197h2.699l1.602 1.075 1.426-1.426 1.842-.241 1.756.79 1.448-.637 4.256.176 4.717 2.677 2.457.153.175-3.313-.504-3.005 6.954-7.504.988-3.29 1.711-1.755 1.887-.066.636-3.269-.834-1.339-.307-1.711.965-1.228-2.742-1.646-1.316-3.203-1.426-1.426-.132-5.024.154-1.843.087-1.075-2.281-3.554-.9-3.247 1.711-2.677 2.304-.789-.088-6.867-1.294-1.097-.505-2.699-1.557-2.282-1.712-5.046-1.974-3.071.175-2.611-1.228-4.015-1.558-.153-2.545-1.975-2.238.22-12.724 1.206-14.414-.789-1.317.482-3.861 3.313-3.269.746-.834-.746 3.247-1.733 3.006-2.984-1.031.066-2.391 2.325-4.213 1.909-4.892-1.316-1.031-2.567.768-1.821 2.588.329 1.185.746.088-.746-3.181-1.492-5.748-1.404-4.454 2.238-3.269-.263-3.357 1.25-2.062 2.743-3.247.065-2.062 2.238v1.733l-3.51.088-5.332 2.808-3.62.264-1.272 2.654-.856 2.633-.768.417.154 1.075-1.119.066 1.207 4.914-.329 3.62z" stroke="#224479" stroke-miterlimit="10" stroke-linecap="round" stroke-linejoin="round"/><path d="M271.241 395.497l1.053-1.185 3.116-.154.153-1.667 1.141-1.031.9-2.04 2.303.877 4.169.154 2.786 1.886 3.181.154 3.028-.636 1.952 1.426 4.432.987.571.132 2.698-1.755 2.611-.066 1.053.855 4.344-1.491 4.19-.549 3.181-3.071 2.852-.242 2.458-2.128 5.243.461-.658-2.918-1.711-1.733-3.028-.066-1.009 1.097-1.953-.088-2.128-3.532-6.867-4.827-3.356-1.009-4.235.944-2.457-1.887.571-1.909-3.357.395-5.309-2.83-1.075.702 2.61 3.313h-1.448l-1.075 1.097-1.557-.615.109-2.106-.811-.439-.9-1.294 1.097-2.413-1.689-1.404-1.843.241-1.953-1.931.154-1.272-4.629-.68-1.097.57-1.975-.351-.987 1.097-.834-1.733-.439.658-1.623-.79-1.47.965-3.51-.789v1.952l-1.887 1.119-1.645-.395-3.752.066-1.229 1.821-2.457.088-2.216 2.435-1.952.154-4.015 3.554-1.865-.878-1.097-.855-.987.702.131 1.623 2.984 1.733 2.37 3.576-.154 2.655.614 1.624 2.216 1.184 3.905 2.567 2.194 1.426 4.564 5.068-.022.088 1.601.153 5.726 3.16z" stroke="#224479" stroke-miterlimit="10" stroke-linecap="round" stroke-linejoin="round"/><path d="M195.62 331.368l-.154 1.228-.899 1.909-.044 2.15-1.47 1.185-2.369-1.031-.988 2.128.33 1.404 2.764-.066 1.163 1.031-.659 1.339-.329 2.369-1.47 1.031 1.229 2.04-1.645.878-2.853-.636-3.027.702-1.382 2.216-1.47 1.733.658 3.181-.746 3.642-.943 2.391.285.088-.746 1.58 1.711 3.4-.066 1.339 1.383 2.04-1.317 3.006h.746l2.699 3.225.482 2.369 1.229 1.031-.198 3.488.044-.021 2.128 1.579v1.338l1.953 1.58 1.887-.614h1.974l1.47.526 2.041-.614 2.698 1.185h2.128l2.216 1.404-2.545 2.523-1.228 3.335v1.645l-1.558 1.426-1.141 3.774.154 3.159 1.974 1.185 1.053 2.128-.066.022 1.865.526 2.062-1.097 2.765.944.834-1.339-.264-1.338 2.304-.79.812 2.128 1.382.395 1.14-1.031 1.558.088 3.116 2.194 1.14.746h.593l1.316-.637 2.018-.724 1.558 1.646 2.874.724.724-.878-.241-1.492 3.027-.394 3.116.46 1.623 1.031 1.975-.482 1.799.57 1.952-.395 3.598-2.303 1.8-.22 2.61.702 2.545-.702 2.545 1.404 1.141-.789-.329-2.041-2.786-1.338v-1.426l3.027-3.708 2.611-1.25 1.316-2.172h1.799l-.109-2.172.395-1.975.021-.088-4.563-5.068-2.194-1.426-3.905-2.566-2.216-1.185-.614-1.624.153-2.654-2.369-3.576-2.984-1.734-.131-1.623.987-.702 1.097.855 1.865.878 4.015-3.554 1.952-.154 2.216-2.435 2.457-.088 1.229-1.821 3.751-.065 1.646.394 1.887-1.118v-1.953l3.51.79 1.47-.966 1.623.79.439-.658.636-.965-.153-5.814-1.36-1.689-1.514-.812-2.041-4.498.9-1.886-.965-2.282v-1.667l-1.646-2.041.395-2.216-3.51-3.642v-1.491l3.181-1.58.329-3.62-1.207-4.914-2.04.109-1.382-1.162-1.887.241-2.062-1.58.439-2.062-1.295-1.909-2.325.417-2.83-2.72-1.975-.329-.768-1.163-1.031.482-2.501.264-2.304 1.579-.855-.833 1.162-1.141.395.285.856-.878 2.347-.899-2.939-.307-1.01.504-.241 1.119-2.282 1.119-.109.987-4.169.615-1.579 2.106-.373 1.58-2.37.197-.724-1.207-2.062-.197-1.009.461-2.874-.834 2.018-1.316 1.36.197 1.492-1.733-.044-1.843-.899-.505-1.799 1.361-.593.789-2.874-1.996-.855-1.141-1.075.614-.592 1.163-1.756 1.229-.68-1.821-1.799-.505-.592-1.228 1.097-1.097 1.228-2.479-2.259-.242-2.172-2.281-2.019.351-1.228-.549-4.169-1.119-2.983.154.131.46-.175 1.821 1.557.988 1.207.087-.176 1.58 2.48 2.238-2.063.746h-1.886l.087 1.908 1.975-.833v2.567l2.062 1.228-1.799 1.339v1.579l1.536.9 2.764.153 3.554 3.598 4.673 1.887-4.914-.921-3.576-3.796-2.413.9-1.799-.9-1.799.329-1.383 2.15.439 1.821.088 3.137 1.031 2.085-2.501-2.743.176-2.479-1.624-1.404-1.031.417v1.558l1.031 1.908-1.119 1.163-1.887-2.15v-2.479l-2.501-1.755-1.448.658-5.068 1.338-.438 2.15 1.031 1.909 2.501.417.504 2.062-.219-.066-.044.461-.658.79zm26.372 83.522l.746 1.273 1.163.066.066-2.041-1.295-.987-.022.285-.658 1.404z" stroke="#224479" stroke-miterlimit="10" stroke-linecap="round" stroke-linejoin="round"/><path d="M233.2 416.227h-1.799l-1.952 1.755-2.37-2.216-1.404.549-1.777-.088-1.163-.066-.746-1.272.658-1.404.176-1.821-2.545-1.668-3.115-2.194-1.558-.087-1.141 1.031-1.382-.395-.812-2.128-2.303.789.263 1.339-.834 1.338-2.764-.943-2.062 1.097-1.865-.527-3.62 1.075-2.04-.219-.659-1.426-2.61.153-1.47 1.733 2.369 1.185.417 2.062-2.04.856-2.216 2.764-1.711.637-2.94 4.497-.505 3.313.044 2.128-1.36-.088-1.295.637.242 1.733 2.457.241 2.786-1.097-1.075-2.698 1.558-1.339 3.356.154 1.141 2.062.812 2.677 1.316 1.031.351 1.843 2.458.877 4.409-3.159 2.962 1.251 4.081-6.78 2.633 1.58-.33 2.523 3.598 1.733 1.141 2.216 2.304-3.949v-3.006l4.914 1.273 1.975-.176 1.952 1.58.505-4.103 4.41-.943-1.141-3.466 2.238-2.633-.922-1.821zm-74.919-57.659h1.733l1.141 1.185 1.229-1.185 2.128-.395.483-.702 1.623-.154.658-1.579 3.862.066 1.294 1.272h1.974l1.053 1.492 3.028-.154 1.031 1.821-.131 1.383 1.93.57.944-2.391.746-3.642-.659-3.181 1.47-1.734 1.382-2.216 3.028-.702 2.852.637 1.646-.878-1.229-2.04 1.47-1.031.329-2.37.658-1.338-1.163-1.031-2.764.066-.329-1.405.987-2.128 2.37 1.032 1.47-1.185.044-2.15.899-1.909.154-1.229.658-.789.044-.461-2.172-.68-1.712-1.492-3.181-1.58-3.356.505-1.975 1.667-1.887-.746-1.206.746-2.743.066-2.567 2.743-4.124 2.15-.856-.593-2.413.922-.088 2.654-2.238 1.646.702 2.567-.526 2.325-.944 1.909-.767 1.316-1.712 1.251.088 1.645 2.567 2.238 2.325.658h-2.588l-1.185 1.009-.79.659 1.031 1.228 1.295.176.088 1.075-2.063.087-1.887-1.908-1.974-.922-1.887.768.68.987 1.799.154 1.646 1.492.592-.242 2.15 1.405-2.062-.746-1.295.087-3.093-.987h-1.975l-.065.044 1.272.592 1.053 1.58z" stroke="#224479" stroke-miterlimit="10" stroke-linecap="round" stroke-linejoin="round"/><path d="M153.868 365.593l2.611.943.416 1.821 3.182 2.523 1.404-.088 1.382 1.119 1.558.702.153 3.006 2.391 1.185 1.229-.79h1.382l.966 1.097 1.491.307 2.611 3.159 2.282.154 2.04 1.426.987-.614h1.646v-1.185l-.9-.79v-1.514l-.746-.943 1.229-1.58.658-1.886h.724l1.317-3.006-1.383-2.041.066-1.338-1.711-3.4.746-1.58-.285-.088-1.931-.57.132-1.382-1.031-1.821-3.028.153-1.053-1.492h-1.975l-1.294-1.272-3.861-.066-.658 1.58-1.624.153-.483.702-2.128.395-1.228 1.185-1.141-1.185h-1.733l-1.054-1.579-1.272-.593-2.326 1.777-1.557 2.699 1.316.943.483 3.774z" stroke="#224479" stroke-miterlimit="10" stroke-linecap="round" stroke-linejoin="round"/><path d="M187.721 380.264l-1.229-1.031-.483-2.369-2.698-3.225h-1.47l-.658 1.886-1.229 1.58.746.943v1.514l.9.79v1.185h.153l1.317 2.04 2.874.549 1.579-.373.198-3.489z" stroke="#224479" stroke-miterlimit="10" stroke-linecap="round" stroke-linejoin="round"/><path d="M202.727 455.435h-3.444l-3.598-2.37-.505-5.682-2.786-2.852 1.645-1.733 2.611-.307.658-3.642-2.128-1.909-.329-2.677.987-1.097.176.066-.351-1.843-1.317-1.031-.811-2.676-1.141-2.063-3.357-.153-1.558 1.338 1.075 2.699-2.786 1.097-2.457-.242-.241-1.733 1.294-.636 1.36.088-.044-2.129.505-3.312 2.94-4.498 1.711-.636 2.216-2.764 2.04-.856-.417-2.062-2.369-1.185 1.47-1.733 2.611-.154.658 1.426 2.04.22 3.686-1.097-1.053-2.128-1.975-1.185-.153-3.159 1.141-3.774 1.557-1.426v-1.645l1.229-3.335 2.545-2.523-2.216-1.404h-2.128l-2.699-1.185-2.04.614-1.47-.526h-1.974l-1.887.614-1.953-1.58v-1.338l-2.128-1.58-1.623.395-2.874-.548-1.317-2.04h-1.799l-.987.614-2.04-1.426-2.282-.154-2.611-3.159-1.492-.307-.965-1.097h-1.382l-1.229.79-2.391-1.185-.154-3.006-1.557-.702-1.383-1.119-1.404.088-3.181-2.523-.417-1.821-2.61-.943-.483-3.774-1.316-.943-.33.614-4.036 1.317-.944-.746-3.269 1.821-.767 2.15.504 2.567-.68 4.058-3.269 3.072v1.316l-3.598.987-1.887.088-2.062-.658-4.3 2.238-1.031 1.908.768 1.317 1.996.658-2.676 1.821-3.247.658-4.476-.57-1.975-.988-1.623.9-.702-1.492-1.448-1.075.68-1.733-1.799-.834-1.887.68-2.654-.088-1.207-.504.768 2.479-.417 1.075 3.774 3.401-.702 1.075.526 1.667-.439 1.645 1.207 1.492.263 1.909-3.949-.505-1.711.593-1.646-.417-1.974.483-.768-.724-2.479 1.974-3.181-4.059-1.8-.57-2.676.57-2.15 1.909-1.097-.57-1.294 1.14-1.12-.745-2.325.263-1.448 1.404-3.444.241-1.536 1.733.856 1.405 1.974-.659 1.975.593.526.746-2.15-.417-1.294.153.768 2.085.68-1.58 1.382.505.351 1.404-1.294.504-2.063.746.088.571h1.975l.855 2.325-.241 1.317 2.304-1.492 1.623.417 1.382-.242 3.598 1.404.79 1.229h1.448l2.501 1.579 1.8-1.579 1.118.263-.439 1.229.615.746 1.886-1.075 1.097 1.075-.855 2.15 1.031 1.579 1.382.088 2.15-1.338 2.304.263 1.469 1.909-1.799-1.009-2.062.087-1.294 1.734 1.206.504.417 2.15-1.031 1.821.439 1.404 1.887.263 2.83 3.379 2.742.417 2.677 1.492-.088 1.909 1.031 1.557-.855 2.172-.527.242-.505 1.908 1.887.417 3.423 2.567 2.676 6.209-2.918-2.743-.789-2.654-2.304-1.141-1.119.746-1.119 5.463.088 3.971 1.799 1.162-1.47 1.075-.592 7.438-2.063 6.472-2.61 1.492 1.952 1.053.242.548 1.382.242.416 2.281-.329 1.733 3.357-.394 4.498 1.733 2.128 2.216 2.281-1.032 2.545 2.523 3.116-.065 1.535.767 1.975-1.952 5.156-.154 1.952 1.01 3.116-.308 3.269 1.734 5.309-.483 3.773 2.216 1.426.46-.131-1.053-.856-3.137.856-3.73.263-1.821 2.567-2.237 3.949-4.059 1.294-.088 1.295.9 2.567.351 2.742 1.557h1.887l1.733-1.316 1.624-.153 6.866 4.124 1.887 1.58 5.068.241 2.15-1.733-.439-1.075 1.975-2.414 7.13-5.111.417-.088-.79-2.348 1.492-3.312zM29.88 288.653l-.491.982-1.886.052.206 1.007-2.634.646.697 2.04 2.893-.025-.439.749 2.299-.749 1.576.051-3.023 3.074-3.797 1.395 1.318 1.188-3.746.646-1.963-.827-1.679 1.834-.8-2.376-6.123-.852v1.033l-3.384-.878-.62 3.564 1.68-1.627.361 2.17.75.387.8 2.144-1.498.052-.259-1.24-3.28.103 3.771 2.609 2.635-.646.852 2.015-3.332.646-.439 1.447.956 1.291-3.746.052.853 2.195-1.318.491 1.99 1.188 1.601-.568-.956 1.214 3.048-.62.801 3.177 7.233-.077-2.325 2.273-1.68-.981-2.737 4.365 1.214-.155-2.222 2.996-4.65 3.074h1.86l2.532-1.575 1.576.878 3.151.077 2.118-2.04.207.955 2.609.233-5.916 1.55-4.39.181-1.06 1.627-2.893.878 1.008 1.343-.646 1.24 1.265.362-2.144.387-1.808-1.472-.697 1.008-.62-.698L1 335.898l.362.956 8.188-.491-2.712 2.248-3.461.749-1.163 2.738 2.196-.026.49 1.55 6.226-1.963-4.701 2.944-1.964 1.576h3.333l4.288-2.299-.207 1.628-3.694 1.653h2.04l-.62 1.24 3.281-.801 1.705 1.136 4.47-.49 4.261-1.214 3.332-2.196-1.11-2.48 2.531.181-.697 1.498 2.634-.026 2.429-2.479 1.833.103.595-2.402 7.516-.827.594-1.576 1.111 1.86 1.628-1.472 1.524.594 3.849-.026-2.635-3.281 1.937-.8 2.04-2.377-.413-2.092 2.119-2.299.723-2.583-1.033-5.76-1.628-.982 1.938-1.188v-2.583l-1.705-2.583.49-2.584-2.014-1.369 1.007-1.498 1.576.207-2.867-1.834-1.912-.388-2.531-4.83-3.85-1.86-1.55 1.111-.748 3.539-1.937.361-5.606-5.011 2.893-5.76 2.713-.388.774-2.221 1.757-.93 1.291-1.317-1.214.232 2.661-2.041 2.377-1.291-2.816-1.473-1.963-1.679.904 1.783h-2.738l.465 2.919-1.938 2.686.259-1.782 1.059-1.24-1.318-2.222-1.756.362 1.059 1.421-2.067.103-1.11-1.085-3.643.904-.051 1.705-1.163.026-.852 2.092 1.808.749zm28.826-46.909l.387 2.816-.051.93 3.332-.491-2.17 1.033-.232.594.697.413 2.118-.749-.49.517.852 1.033-1.576-.62-.62.414-.439 1.369.852.594-1.265.206-.801 1.189 1.447.465.335 1.084-2.402-.878-.439 1.55.956.62-.569 1.007-1.11.801-2.35.052-1.008 1.033.878.517 1.989-.104 1.343.362-.31.568h-1.524l2.067 1.886.645-.258 1.06 1.11 5.424-5.295-.878 1.602.826.49-1.627.543-1.317 3.048.155.723-1.68 3.074.724.387-1.42 3.694.36 2.351-1.007 1.421.75 1.162.955-.439-1.705 2.635-.31 3.668-1.265 1.188.103.878h2.816l-.388-1.885 1.214-2.739-.103-1.679 1.472-1.73-1.11-4.547h1.059l3.332-3.874-2.532 3.668-.31 2.66.982.698.18-1.576 1.68-1.343.749 2.454 1.369-2.971-.31-2.066 1.11-.568-.438 2.686 2.815 2.066-2.428-.62-.852 3.41.542 2.532 1.472.336.879 2.221-2.17 2.144-2.222 5.554.517 2.479-1.937-1.188.103 2.687 2.66 3.564-.826-3.28 1.834-.491 4.65 3.255.103-2.583-1.912-1.499 1.215-.284 3.745 2.273 2.635-.413v-1.085l2.428.078.723-2.17 6.587.258-4.365 1.111-2.635 7.258 3.255 5.657 1.601-.904v2.971l2.144-2.48 2.635.388-.904 3.073.8.491-2.634 1.989.826 3.462-1.42 2.634 1.627 2.015 1.911 1.628 1.576.155-1.085.749-1.756.103-1.524-2.066-1.473.542 1.214 2.015 1.318.801-2.067-.44-1.653-1.627-4.262 1.292-1.912-.284-4.416 2.092-2.274 3.074-3.177 1.963-1.369 1.886 2.015-.362 1.033.336.284-1.137 4.52-1.162-.413 2.299 1.576 1.575-1.679 1.189.956 1.73 1.059.233-2.92 5.424-2.117.698-2.144 1.55-1.06.051-2.711 1.628-1.99.026-3.177 1.988 2.532.336.155 1.783-1.834.852 3.254.517-.826.749 1.266.697 1.834-.516 2.118-1.24 3.435-1.085.31 1.524 2.712.646-2.221.594-.258 1.24 3.745.077v-.697l1.886-.491 1.911 2.118 1.731 1.963 4.288-.052 1.007-1.653 2.015-.852 2.79-.982 1.06-1.498 2.324-1.059-3.177 3.591-3.178 2.919-.155 3.487-2.17-.104-1.73.594-1.963-1.033-5.58-.568-3.926 1.007.052 1.938-1.68 1.55H72.5l-.36 4.417-2.326 2.04-.594 1.137-2.583.465-.671 2.505-1.111.026-.594 1.318-3.126 2.195-1.42-.49-2.17 1.498v1.937l2.376.129.078-1.73 2.893.749 1.188 2.014 1.42-1.291-.62-.982 1.318-1.705.646.801 1.601-1.498h1.06l.826-1.886 2.48.62 1.911-.852 1.576.258 1.11-.594 1.111 1.421 1.318-.104 1.808 1.473 2.118-.103-.387-1.318 1.653-.775.465-1.214-.465-2.247 1.472-1.395 1.214-.155.517-.878 4.727-1.059 2.48.18 2.893 1.938 1.059-.413 3.126.129 1.678.594.801-1.938 2.893-1.394 1.963.542 2.79-1.808 1.963.439 1.008-.155 1.369-.982.413.982 1.679.93 1.912-1.24 4.339-.078 2.738-.542 2.635.827 1.292.232 1.989-1.524 2.169-.413 1.912-1.757 1.317-.077 1.37.284-.31-1.421 3.099-2.066 1.912-.388.155-1.885-.543-1.344.594-1.524-3.487.104-2.48.904-1.446.232-2.299-.801-.853-.206.801-.723.698-.104.232-.439-2.118-.517-1.808.646 2.531-1.705 1.705.155 2.041-.93-.594-1.704h-2.015l1.498-1.266 1.111-1.059 1.214.981 1.885-1.291.75-1.137-.905-.206.595-.879-2.17-.232.878-1.395 1.343.336.414.981 1.575-1.989 1.524-.594.233-3.719 1.42-3.488-1.11-1.394-.62-3.178-4.443-3.358-6.2-.258-3.848.103-.31 2.79-1.008 1.576-2.04-2.17-2.429-.568 3.875-3.694v-2.299l-3.048-4.753-1.214-.207-2.686-1.498-1.111-1.808-1.369.258-.956.284-1.602-.542h-.981l1.834-.439 1.162.284 1.963-.388 1.215.517 1.059 1.059 1.369-.258 1.317.284-3.59-4.288-1.68-2.067 1.06-1.653.981-.335-1.782-.956-.749-1.266-.775-.103-2.093-3.72-3.151-1.576-4.469-.981-.181-1.679-1.033-.594-1.421-4.676-1.601-2.557-1.137-5.967-1.317-1.989-1.214.026-3.746-5.373-2.221-.465-1.73-1.395-2.842-1.085-1.11 1.008-2.222 1.394-3.152-.981-1.498.181-2.531-.775-.75-1.318 1.525.724 3.022.232 2.531-.801.75-1.911 2.582.077 2.325-1.705-2.376-1.084-.155-1.318-.956-.749-3.28 1.705-.569-.646 2.532-1.782 3.048.181 1.756-1.499.31-1.343 1.214-.749 1.757-3.306 1.136-1.55-.18-1.085 1.265-2.247-.439-.775 1.11-3.1 2.119-1.731v-1.963l-3.126-2.764-.671.491-5.347.181-3.307-.594-.955.646H86.81l-2.015-.672-1.42.052-.207.697-2.015.594-2.196 1.162-.852-.051-1.472 1.136-.44-.439 1.964-2.195 2.066-3.229-1.498.801-1.886-.672 1.111-.697.413-1.499 5.192-3.797 1.525-2.454 1.782-.62.852-2.221-.904-1.008 1.008-1.575-.104-.982H85.08l-1.06 1.111-1.653-.491-2.531 1.085-2.325-.233-1.989.801h-1.11l-1.163 1.033.258-1.136-1.059-.439-2.17 1.834.646-1.628-2.97-1.317-.517 1.782-1.008.749.31 1.628-.62.051.104 2.041-2.17.439 1.059 1.731-.904 1.756-1.06.052 2.584 2.196.904 1.601-2.635-1.291-.955.801-1.912-1.24-.103.904.49 1.188-.594.878-1.007-1.911-.93 2.015 1.008 1.11-.801 1.033 1.575 1.731 1.525.026-1.783.672-1.808-.982zm153.895 240.127l.416 1.579 1.646.812v.834l-.856.504.68 1.075 1.558.834-.11 1.492h.79l.593.987-.856-.175-.768 1.162.592 1.01 3.445 1.404 2.15-1.01 1.185-3.466-.088-2.808 1.382-5.068-1.207-4.388.264-2.808-.593-3.159h-1.119l-.438 1.908.68 1.426-.329 1.975h-.856l-1.382-1.404-1.36 1.316-3.445 1.163-1.558 2.655 1.295 1.162-.417.988h-1.294zm-1.534 16.058l.176-.987.965-1.032-.899-.767-.373 1.075-.681.373.066 1.426.746-.088zm.588 7.041l.439 1.645 1.448 1.251v2.567l-1.623 1.667.68 1.316 2.238.176v.899l-1.383 1.58-1.031 3.796.944 1.404 1.119 4.475 1.733 1.755.834-.504 1.14.504 1.624-.68.153-2.479.702-1.492 2.151.176 1.36 1.316h1.294l.856-1.558v-4.08l.417-1.141-.505-4.388.856-3.971-2.918-2.479 2.501-1.58.329-1.667-.592-2.567-1.448-1.58-1.646-2.895-.856.833-1.974-1.492-1.711.176-4.125 4.717-1.799.066-2.589-1.47v2.391l-.417 1.58 1.799 1.733zm79.159 35.014l.417-2.896-1.711-1.975-2.83 2.633-1.207-.154-2.501-1.316-2.391 2.479-5.156-.329-4.212 1.229-3.006-.571-2.128-1.404-2.501.242-1.361 1.075-.767-.988-2.765 1.229-.329 3.576 2.392 2.15 2.413-.417 4.278 2.808 2.325.593 2.151 2.238 5.068 1.82 1.031-.658 2.215 1.558.439 1.755 5.244 1.975 2.128-.33-.154-2.72 1.119-1.338-.263-2.414-2.062-2.72 2.062-5.309 2.062-1.821z" stroke="#224479" stroke-miterlimit="10" stroke-linecap="round" stroke-linejoin="round"/><path d="M265.958 429.677l-.812-1.733 2.611-3.642-1.646-1.426-3.751.329-6.889-1.273-5.573-3.159.33-2.194-3.928.307-2.457-.636-5.901 3.313-3.774-1.58-2.282 2.699 1.141 3.466-4.409.943-.505 4.103-1.953-1.58-1.974.176-4.915-1.273v3.006l-2.303 3.949-1.141-2.216-3.598-1.733.329-2.523-2.633-1.579-4.08 6.779-2.962-1.251-4.41 3.159-2.633-.943-.987 1.097.329 2.677 2.128 1.908-.658 3.642-2.611.307-1.645 1.734 2.786 2.852.505 5.682 3.598 2.369h3.444l-1.492 3.313.79 2.348 5.419-.922 1.975-2.391.087-1.821 5.836-3.159 7.569 1.908 2.216 1.404 3.335.944.943 1.755.658 1.163.9 1.689 2.062 3.225.088 1.909 1.799 1.075-.088 3.071 2.677 1.251 1.711 2.062 3.094 2.808.329 1.997 3.268.088 2.063 2.632.439 1.755 1.448.483 4.629 5.726 4.475 3.225 2.15.329 1.887 1.229.417 1.821h2.062l1.47-1.317 2.326.922 2.216.153 2.413 4.301 1.448.921 1.294-.505 1.887.681-.175 1.469 1.974-.065 2.062.153 1.47 1.821-.263 2.15-.505.922 1.097 1.075 2.326.175.943 1.821 2.918.658 1.295-.746 1.623.988 1.031 3.488.527 3.291 1.184 1.492.966 3.905 1.272 1.821-.088 1.974-1.184 1.426-.922.022-.636.373.285 2.172-.285 2.062-1.338 1.492-1.382.724-.549.856.088 1.645 2.479 2.414 3.269-.264 1.645-2.15.417-2.325 3.094-2.392.263-5.046 1.887-1.908 1.974-.505.768-1.558-.592-1.009.373-2.808-.637-1.25-3.181-2.896-1.799-.242-.768-1.119v-1.623l1.624-1.075.395-1.646-.132-1.404 1.295-1.338.768-2.633 1.031-.636 1.535-.197 2.326 1.075.68.987 3.51.044 1.229.724-.285 1.645.965 1.997 1.558 1.908 2.018.812.088-.636.614-.483-.263-1.755.965-1.36.329-2.808-.855-1.47-1.887-1.273-3.686-.899-2.26-2.282-3.488-2.523-8.929-4.629-4.3-1.009h-2.326l-1.097-1.733.088-.988 2.83-1.908.417-1.492-1.975-.988-2.742.417-1.799-.504-4.3.022-1.448-.856-2.106-.395-1.602-1.601-3.335-2.48-1.623-2.435-2.062-2.018-1.558-2.15-.088-2.238-.943-.505-.176-1.908-7.371-7.196-1.382-1.821-2.743-1.404-4.98-2.567-1.207-1.668-.351-3.137-1.272-2.742 1.031-.834 1.711-2.479-1.535-1.887-1.207-2.325.856-1.668 2.479-.329 2.325-1.974h2.479l1.646-1.58 1.558-.746 2.544.614-.548-3.729 1.47-2.216z" stroke="#224479" stroke-miterlimit="10" stroke-linecap="round" stroke-linejoin="round"/><circle cx="191.929" cy="181.218" r="8.091" transform="rotate(8.425 191.929 181.218)" fill="#DF591C"/><circle cx="241.953" cy="216.23" r="8.091" transform="rotate(8.425 241.953 216.23)" fill="#DF591C"/><circle cx="443.902" cy="375.902" r="7.838" transform="rotate(8.425 443.902 375.902)" fill="#DF591C"/></g><defs><clipPath id="clip0_984_1247"><path fill="#fff" d="M0 0h540v557H0z"/></clipPath></defs></svg>