<svg width="21" height="21" fill="none" xmlns="http://www.w3.org/2000/svg"><path fill-rule="evenodd" clip-rule="evenodd" d="M6.604 18.9c7.925 0 12.26-6.465 12.26-12.07 0-.184 0-.367-.013-.549A8.679 8.679 0 0021 4.086a8.687 8.687 0 01-2.474.667 4.274 4.274 0 001.894-2.347 8.72 8.72 0 01-2.736 1.03 4.362 4.362 0 00-6.096-.184 4.206 4.206 0 00-1.247 4.054 12.303 12.303 0 01-8.88-4.432 4.205 4.205 0 001.335 5.662 4.327 4.327 0 01-1.956-.53v.053c.001 2.02 1.447 3.758 3.457 4.158-.635.17-1.3.195-1.945.072.564 1.729 2.182 2.913 4.025 2.947A8.731 8.731 0 010 16.994a12.34 12.34 0 006.604 1.902" fill="#224479"/></svg>