<svg width="160" height="49" fill="none" xmlns="http://www.w3.org/2000/svg"><g clip-path="url(#clip0_984_1389)" fill="#fff"><path d="M8.909 16.4l-.125.649-1.49 7.77-.843 4.396h.008l.842-4.396 1.49-7.77.124-.65h-.006zm9.076 0l-.125.649-1.489 7.77-.841 4.396h.008l.841-4.396 1.49-7.77.125-.65h-.009z"/><path d="M38.273 3.91l-1.49 7.77H18.897l-5.245 27.382-7.49 1.974c-.742-.616-.96-.798-1.705-1.413l1.994-10.407h.008l.842-4.397 1.49-7.77.124-.65h-.006L11.302 3.91h26.97z"/><path d="M8.784 17.049l-1.49 7.77h.007l1.49-7.77h-.007zm9.076 0l-1.489 7.77h.009l1.489-7.77h-.009zm-16.37 0L0 24.819h5.69l1.489-7.77h-5.69zm40.204 9.985c1.177-6.148-3.376-9.985-10.538-9.985H19.472l-1.49 7.77h11.684c2.031 0 3.18.985 2.858 2.658-.329 1.723-1.855 2.706-3.885 2.706h-4.492l-1.486 7.774 6.215 11.067h9.997l.348-1.822-6.465-10.626.057-.292c4.548-1.426 8.022-4.775 8.88-9.25z"/><path d="M8.915 16.4l-.125.649-1.49 7.77-.84 4.396h-.01l.844-4.396 1.49-7.77.124-.65h.006zm44.535.9V3.91h11.57v1.94h-9.226v4.157h8.9v1.918h-8.9v5.374h-2.345zm12.859 0V3.91h11.636v1.94h-9.292v3.755h8.966v1.918h-8.966v3.837h9.292v1.94H66.309zm13.406 0V3.91h2.517l6.514 7.832 1.888 2.497h.173L90.7 11.82V3.91h2.345V17.3h-2.517L83.97 9.484l-1.824-2.359h-.172l.087 2.318v7.853h-2.347v.002zm15.552 0V3.91h2.345V17.3h-2.345zm3.178 0l5.862-6.655v-.159L98.445 3.91h3.038l4.732 5.275h.173l4.63-5.275h3.039l-5.862 6.594v.16l5.862 6.633h-3.039l-4.712-5.375h-.173l-4.647 5.375h-3.041v.002zM53.45 36.253v-13.39h7.555c3.299 0 5.34 1.44 5.34 3.936 0 2.218-1.585 3.576-4.32 3.717v.14c1.129.28 1.65.88 2.171 1.718l2.433 3.876h-2.693l-2.322-3.696c-.652-1.058-1.326-1.498-3.15-1.498h-2.67v5.194h-2.345v.003zm2.344-6.855h5.188c1.954 0 2.93-.62 2.93-2.299 0-1.64-.976-2.299-2.93-2.299h-5.188v4.598zm12.143 6.855v-13.39h11.639v1.94h-9.291v3.756h8.965v1.918h-8.965v3.836h9.29v1.94H67.938zm13.406 0v-13.39h7.122c3.234 0 5.449 1.7 5.449 4.677 0 2.958-2.215 4.675-5.449 4.675h-4.777v4.038h-2.345zm2.345-11.45v5.476h4.56c2.191 0 3.32-.759 3.32-2.737 0-1.978-1.129-2.737-3.32-2.737h-4.56v-.002zm10.999 4.754c0-4.175 3.019-6.894 7.578-6.894 4.602 0 7.598 2.719 7.598 6.894 0 4.175-2.996 6.894-7.598 6.894-4.56 0-7.578-2.716-7.578-6.894zm12.701 0c0-3.336-1.671-4.835-5.123-4.835s-5.103 1.499-5.103 4.835 1.65 4.817 5.103 4.817c3.452 0 5.123-1.478 5.123-4.817zm6.465 6.696l-3.843-13.39h2.605l2.368 8.474.651 2.838h.173l.781-2.838 2.931-8.473h3.41l3.126 8.473.824 2.838h.173l.609-2.838 2.172-8.473h2.563l-3.648 13.389h-3.452l-2.931-7.793-1.064-3.438h-.196l-1.042 3.438-2.758 7.793h-3.452zm19.585 0v-13.39h11.636v1.94h-9.291v3.756h8.965v1.918h-8.965v3.836h9.291v1.94h-11.636zm13.406 0v-13.39h7.555c3.299 0 5.341 1.44 5.341 3.936 0 2.218-1.586 3.576-4.321 3.717v.14c1.13.28 1.651.88 2.172 1.718l2.432 3.876h-2.693l-2.322-3.696c-.651-1.058-1.325-1.498-3.149-1.498h-2.67v5.194h-2.345v.003zm2.345-6.855h5.188c1.954 0 2.931-.62 2.931-2.299 0-1.64-.977-2.299-2.931-2.299h-5.188v4.598z"/></g><defs><clipPath id="clip0_984_1389"><path fill="#fff" d="M0 0h160v49H0z"/></clipPath></defs></svg>